<svg width="9" height="18" viewBox="0 0 9 18" fill="none" xmlns="http://www.w3.org/2000/svg">
<path d="M7.13511 17.1668C6.96082 17.1674 6.7886 17.129 6.63113 17.0543C6.47365 16.9796 6.33491 16.8705 6.22511 16.7352L0.59011 9.73516C0.418514 9.5264 0.324707 9.26455 0.324707 8.99433C0.324707 8.7241 0.418514 8.46225 0.59011 8.25349L6.42344 1.25349C6.62147 1.01524 6.90603 0.865411 7.21453 0.836968C7.52303 0.808525 7.83019 0.903797 8.06844 1.10183C8.3067 1.29985 8.45652 1.58442 8.48497 1.89291C8.51341 2.20141 8.41814 2.50857 8.22011 2.74683L3.00511 9.00016L8.04511 15.2535C8.18777 15.4247 8.2784 15.6333 8.30626 15.8544C8.33412 16.0756 8.29804 16.3 8.20231 16.5013C8.10658 16.7026 7.95519 16.8723 7.76607 16.9902C7.57694 17.1081 7.35798 17.1694 7.13511 17.1668Z" fill="black"/>
</svg>
