<svg width="375" height="512" viewBox="0 0 375 512" fill="none" xmlns="http://www.w3.org/2000/svg">
<path d="M263.774 453.702C220.292 431.761 190.489 391.323 147.813 367.853C99.3009 341.174 37.5113 342.707 -4.21695 306.322C-50.3172 266.124 -94.0791 213.129 -99.5005 152.205C-104.917 91.3303 -65.1867 35.7464 -32.9127 -16.152C-3.62816 -63.2431 31.2027 -108.797 79.6205 -135.831C125.027 -161.184 179.298 -109.656 227.733 -128.591C257.81 -58.5828 303.733 -66.0906 368.733 -140.091C482.733 32.4094 357.233 15.4094 404.733 15.4094C444.122 73.0376 408.287 -49.7183 413.233 19.9094C416.022 59.1674 402.225 75.6232 413.233 113.409C427.166 161.236 410.633 210.663 413.233 260.409C416.429 321.556 426.233 372.409 426.233 418.909C390.424 468.15 491.84 506.031 431.145 510.824C371.632 515.524 317.072 480.596 263.774 453.702Z" fill="#1976D2"/>
</svg>
